# xmcd CD database file
#
# Track frame offsets:
#	150
#	13253
#	32100
#	58100
#	79290
#	104962
#	130033
#	144199
#	171349
#	189025
#	211046
#	228257
#
# Disc length: 3309 seconds
#
# Revision: 0
# Processed by: cddbd v1.5.2PL0 Copyright (c) Steve Scherf et al.
# Submitted via: CDex 1.70beta2
#
DISCID=a00ceb0c
DTITLE=Dědek Band - The Blues (Remastered)
DYEAR=1900
DGENRE=Blues
TTITLE0=No 5
TTITLE1=Bály
TTITLE2=Pivní blues
TTITLE3=Dejchám
TTITLE4=Karel Gott
TTITLE5=Fráňa Šrámek
TTITLE6=Seno
TTITLE7=Penze
TTITLE8=Kámen
TTITLE9=Stáří
TTITLE10=Kvartální alkoholik
TTITLE11=No 2
EXTD=
EXTT0=
EXTT1=
EXTT2=
EXTT3=
EXTT4=
EXTT5=
EXTT6=
EXTT7=
EXTT8=
EXTT9=
EXTT10=
EXTT11=
PLAYORDER=
